<svg width="96" height="96" viewBox="0 0 96 96" fill="none" xmlns="http://www.w3.org/2000/svg">
  <g stroke="#F0CB81" stroke-width="2.2" stroke-linecap="round" stroke-linejoin="round">
    <path d="M48 47C42 39 38 32 38 26C38 19.9 42.7 15 48 15C53.3 15 58 19.9 58 26C58 32 54 39 48 47Z"/>
    <path d="M49 48C58 42 65 38 71 38C77.1 38 82 42.7 82 48C82 53.3 77.1 58 71 58C65 58 58 54 49 48Z"/>
    <path d="M48 49C54 57 58 64 58 70C58 76.1 53.3 81 48 81C42.7 81 38 76.1 38 70C38 64 42 57 48 49Z"/>
    <path d="M47 48C38 54 31 58 25 58C18.9 58 14 53.3 14 48C14 42.7 18.9 38 25 38C31 38 38 42 47 48Z"/>
    <line x1="48" y1="32" x2="48" y2="64"/>
    <line x1="32" y1="48" x2="64" y2="48"/>
    <line x1="36.5" y1="36.5" x2="59.5" y2="59.5"/>
    <line x1="59.5" y1="36.5" x2="36.5" y2="59.5"/>
    <circle cx="48" cy="48" r="3.5" fill="#F0CB81" stroke="none"/>
  </g>
</svg>
