<svg width="96" height="96" viewBox="0 0 96 96" fill="none" xmlns="http://www.w3.org/2000/svg">
  <defs>
    <linearGradient id="mingliGold" x1="15" y1="16" x2="80" y2="82" gradientUnits="userSpaceOnUse">
      <stop stop-color="#F4D28B"/>
      <stop offset="1" stop-color="#C79133"/>
    </linearGradient>
  </defs>
  <circle cx="48" cy="48" r="37" stroke="url(#mingliGold)" stroke-width="2"/>
  <circle cx="48" cy="48" r="27" stroke="url(#mingliGold)" stroke-width="1.6" stroke-opacity="0.9"/>
  <circle cx="48" cy="48" r="7" stroke="url(#mingliGold)" stroke-width="1.8"/>
  <path d="M48 17V79M17 48H79M26 26L70 70M70 26L26 70" stroke="url(#mingliGold)" stroke-width="1.5" stroke-linecap="round" stroke-opacity="0.88"/>
  <path d="M48 25L52.5 43.5L71 48L52.5 52.5L48 71L43.5 52.5L25 48L43.5 43.5L48 25Z" stroke="url(#mingliGold)" stroke-width="1.8" stroke-linejoin="round"/>
  <circle cx="48" cy="48" r="2.6" fill="url(#mingliGold)"/>
  <path d="M48 21L50.8 26.8H45.2L48 21Z" fill="url(#mingliGold)"/>
  <path d="M48 75L50.8 69.2H45.2L48 75Z" fill="url(#mingliGold)"/>
  <path d="M75 48L69.2 50.8V45.2L75 48Z" fill="url(#mingliGold)"/>
  <path d="M21 48L26.8 50.8V45.2L21 48Z" fill="url(#mingliGold)"/>
</svg>
